{"title":"David.Letterman.2014.11.21.Norman.Lear.SDTV.x264-DB666","uid":11544764,"size":477237705,"categoryP":"video","categoryS":"tv_shows","magnet":"?xt=urn:btih:fd6a438d1d65a2d6dfc4e23ec425fccfd9412265&amp;dn=David.Letterman.2014.11.21.Norman.Lear.SDTV.x264-DB666&amp;tr=udp%3A%2F%2Ftracker.openbittorrent.com%3A80&amp;tr=udp%3A%2F%2Fopen.demonii.com%3A1337&amp;tr=udp%3A%2F%2Ftracker.coppersurfer.tk%3A6969&amp;tr=udp%3A%2F%2Fexodus.desync.com%3A6969","seeders":0,"leechers":1,"uploader":"danyboy666","files":3,"time":1416713095,"description":"*******************************************************************************\n             David.Letterman.2014.11.21.Norman.Lear.SDTV.x264-DB666\n*******************************************************************************\n\n-------------------------------------------------------------------------------\n                              General Information\n-------------------------------------------------------------------------------\n\nType.................: Video\nVideo Format.........: H.264\nResolution...........: 720 x 480\nSource...............: ClearQam\n\n\n-------------------------------------------------------------------------------\n                               Post Information\n-------------------------------------------------------------------------------\n\nTVDB or iMDB.........: http://thetvdb.com/?tab=series&amp;id=75088&amp;lid=7\n\n-------------------------------------------------------------------------------\n                                 Synopsys\n-------------------------------------------------------------------------------\n\n2014-11-21\n\nNorman Lear, TV on the Radio\n\n\n-------------------------------------------------------------------------------\n                                 Infomedia\n-------------------------------------------------------------------------------\n\nGeneral\nUnique ID                                : 79595263739393375373088137522781389001 (0x3BE17D7CE04F3452AB48C3ABCAD880C9)\nComplete name                            : David.Letterman.2014.11.21.Norman.Lear-db666.mkv\nFormat                                   : Matroska\nFormat version                           : Version 2\nFile size                                : 455 MiB\nDuration                                 : 43mn 36s\nOverall bit rate                         : 1 459 Kbps\nWriting application                      : HandBrake 0.9.9\nWriting library                          : libmkv 0.6.5\n\nVideo\nID                                       : 1\nFormat                                   : AVC\nFormat/Info                              : Advanced Video Codec\nFormat profile                           : &lt;a class=&quot;__cf_email__&quot; href=&quot;/cdn-cgi/l/email-protection&quot; data-cfemail=&quot;e5ad8c828da5a9d7cbd7&quot;&gt;[email&amp;#160;protected]&lt;/a&gt;&lt;script cf-hash='f9e31' type=&quot;text/javascript&quot;&gt;\n/* &lt;![CDATA[ */!function(){try{var t=&quot;currentScript&quot;in document?document.currentScript:function(){for(var t=document.getElementsByTagName(&quot;script&quot;),e=t.length;e--;)if(t[e].getAttribute(&quot;cf-hash&quot;))return t[e]}();if(t&amp;&amp;t.previousSibling){var e,r,n,i,c=t.previousSibling,a=c.getAttribute(&quot;data-cfemail&quot;);if(a){for(e=&quot;&quot;,r=parseInt(a.substr(0,2),16),n=2;a.length-n;n+=2)i=parseInt(a.substr(n,2),16)^r,e+=String.fromCharCode(i);e=document.createTextNode(e),c.parentNode.replaceChild(e,c)}}}catch(u){}}();/* ]]&gt; */&lt;/script&gt;\nFormat settings, CABAC                   : Yes\nFormat settings, ReFrames                : 4 frames\nCodec ID                                 : V_MPEG4/ISO/AVC\nDuration                                 : 43mn 36s\nBit rate                                 : 1 206 Kbps\nWidth                                    : 720 pixels\nHeight                                   : 480 pixels\nDisplay aspect ratio                     : 4:3\nFrame rate mode                          : Constant\nFrame rate                               : 29.970 fps\nStandard                                 : NTSC\nColor space                              : YUV\nChroma subsampling                       : 4:2:0\nBit depth                                : 8 bits\nScan type                                : Progressive\nBits/(Pixel*Frame)                       : 0.116\nStream size                              : 376 MiB (83%)\nWriting library                          : x264 core 130 r2273 b3065e6\nEncoding settings                        : cabac=1 / ref=3 / deblock=1:-1:-1 / analyse=0x3:0x113 / me=hex / subme=7 / psy=1 / psy_rd=1.00:0.15 / mixed_ref=1 / me_range=16 / chroma_me=1 / trellis=1 / 8x8dct=1 / cqm=0 / deadzone=21,11 / fast_pskip=1 / chroma_qp_offset=-3 / threads=9 / lookahead_threads=1 / sliced_threads=0 / nr=0 / decimate=1 / interlaced=0 / bluray_compat=0 / constrained_intra=0 / bframes=3 / b_pyramid=2 / b_adapt=1 / b_bias=0 / direct=1 / weightb=1 / open_gop=0 / weightp=2 / keyint=300 / keyint_min=30 / scenecut=40 / intra_refresh=0 / rc_lookahead=40 / rc=crf / mbtree=1 / crf=20.0 / qcomp=0.60 / qpmin=0 / qpmax=69 / qpstep=4 / vbv_maxrate=5000 / vbv_bufsize=5000 / crf_max=0.0 / nal_hrd=none / ip_ratio=1.40 / aq=1:1.00\nLanguage                                 : English\nDefault                                  : Yes\nForced                                   : No\nColor primaries                          : BT.601 NTSC\nTransfer characteristics                 : BT.709\nMatrix coefficients                      : BT.601\nColor range                              : Limited\n\nAudio\nID                                       : 2\nFormat                                   : AC-3\nFormat/Info                              : Audio Coding 3\nMode extension                           : CM (complete main)\nFormat settings, Endianness              : Big\nCodec ID                                 : A_AC3\nDuration                                 : 43mn 36s\nBit rate mode                            : Constant\nBit rate                                 : 224 Kbps\nChannel(s)                               : 2 channels\nChannel positions                        : Front: L R\nSampling rate                            : 48.0 KHz\nBit depth                                : 16 bits\nCompression mode                         : Lossy\nStream size                              : 69.9 MiB (15%)\nDefault                                  : Yes\nForced                                   : No","torrent":{"xt":"urn:btih:fd6a438d1d65a2d6dfc4e23ec425fccfd9412265","amp;dn":"David.Letterman.2014.11.21.Norman.Lear.SDTV.x264-DB666","amp;tr":["udp%3A%2F%2Ftracker.openbittorrent.com%3A80","udp%3A%2F%2Fopen.demonii.com%3A1337","udp%3A%2F%2Ftracker.coppersurfer.tk%3A6969","udp%3A%2F%2Fexodus.desync.com%3A6969"],"infoHash":"fd6a438d1d65a2d6dfc4e23ec425fccfd9412265","infoHashBuffer":{"type":"Buffer","data":[253,106,67,141,29,101,162,214,223,196,226,62,196,37,252,207,217,65,34,101]},"announce":[],"urlList":[]}}